{
  "accessors": [
    {
      "bufferView": 2,
      "componentType": 5126,
      "count": 27150,
      "max": [
        0.4264637529850006,
        -0.7678591012954712,
        0.2312692105770111
      ],
      "min": [
        -0.4250781834125519,
        -1.7635952234268188,
        -0.5207217931747437
      ],
      "type": "VEC3"
    },
    {
      "bufferView": 2,
      "byteOffset": 325800,
      "componentType": 5126,
      "count": 27150,
      "type": "VEC3"
    },
    {
      "bufferView": 3,
      "componentType": 5126,
      "count": 27150,
      "type": "VEC4"
    },
    {
      "bufferView": 1,
      "componentType": 5126,
      "count": 27150,
      "type": "VEC2"
    },
    {
      "bufferView": 1,
      "byteOffset": 217200,
      "componentType": 5126,
      "count": 27150,
      "type": "VEC2"
    },
    {
      "bufferView": 0,
      "componentType": 5125,
      "count": 70788,
      "type": "SCALAR"
    }
  ],
  "asset": {
    "generator": "fab-model-conversion",
    "version": "2.0"
  },
  "bufferViews": [
    {
      "buffer": 0,
      "byteLength": 283152,
      "target": 34963
    },
    {
      "buffer": 0,
      "byteLength": 434400,
      "byteOffset": 283152,
      "byteStride": 8,
      "target": 34962
    },
    {
      "buffer": 0,
      "byteLength": 651600,
      "byteOffset": 717552,
      "byteStride": 12,
      "target": 34962
    },
    {
      "buffer": 0,
      "byteLength": 434400,
      "byteOffset": 1369152,
      "byteStride": 16,
      "target": 34962
    }
  ],
  "buffers": [
    {
      "byteLength": 1803552,
      "uri": "scene.bin"
    }
  ],
  "images": [
    {
      "uri": "textures/engine_BaseColor.jpeg"
    },
    {
      "uri": "textures/engine_ORM.jpeg"
    },
    {
      "uri": "textures/engine_Normal.png"
    }
  ],
  "materials": [
    {
      "doubleSided": true,
      "name": "engine",
      "normalTexture": {
        "index": 2
      },
      "pbrMetallicRoughness": {
        "baseColorTexture": {
          "index": 0
        },
        "metallicRoughnessTexture": {
          "index": 1
        }
      }
    }
  ],
  "meshes": [
    {
      "name": "engine_engine_0",
      "primitives": [
        {
          "attributes": {
            "NORMAL": 1,
            "POSITION": 0,
            "TANGENT": 2,
            "TEXCOORD_0": 3,
            "TEXCOORD_1": 4
          },
          "indices": 5,
          "material": 0,
          "mode": 4
        }
      ]
    }
  ],
  "nodes": [
    {
      "children": [
        1
      ],
      "matrix": [
        1.0,
        0.0,
        0.0,
        0.0,
        0.0,
        2.220446049250313e-16,
        -1.0,
        0.0,
        0.0,
        1.0,
        2.220446049250313e-16,
        0.0,
        0.0,
        0.0,
        0.0,
        1.0
      ],
      "name": "FAB converted model"
    },
    {
      "children": [
        2
      ],
      "matrix": [
        0.009999999776482582,
        0.0,
        0.0,
        0.0,
        0.0,
        0.0,
        0.009999999776482582,
        0.0,
        0.0,
        -0.009999999776482582,
        0.0,
        0.0,
        0.0,
        0.0,
        0.0,
        1.0
      ],
      "name": "engine.fbx"
    },
    {
      "children": [
        3
      ],
      "name": "RootNode"
    },
    {
      "children": [
        4
      ],
      "matrix": [
        114.0226821899414,
        0.0,
        0.0,
        0.0,
        0.0,
        -3.2169215810319684e-05,
        -114.02268218993687,
        0.0,
        0.0,
        114.02268218993687,
        -3.2169215810319684e-05,
        0.0,
        0.0,
        -7.450580596923828e-07,
        0.0,
        1.0
      ],
      "name": "engine"
    },
    {
      "mesh": 0,
      "name": "engine_engine_0"
    }
  ],
  "samplers": [
    {
      "magFilter": 9729,
      "minFilter": 9987,
      "wrapS": 10497,
      "wrapT": 10497
    }
  ],
  "scene": 0,
  "scenes": [
    {
      "name": "FAB converted",
      "nodes": [
        0
      ]
    }
  ],
  "textures": [
    {
      "sampler": 0,
      "source": 0
    },
    {
      "sampler": 0,
      "source": 1
    },
    {
      "sampler": 0,
      "source": 2
    }
  ]
}
